# xmcd CD database file
#
# Track frame offsets:
#	150
#	13164
#	23412
#	57174
#	71339
#	82726
#	93651
#	107522
#	120221
#	134349
#	146345
#	156723
#	178660
#	191147
#
# Disc length: 2725 seconds
#
# Revision: 0
# Processed by: cddbd v1.5.2PL0 Copyright (c) Steve Scherf et al.
# Submitted via: CDex 1.40Release
#
DISCID=b20aa30e
DTITLE=Ray Charles - Kings of Blues CD 2
DYEAR=1900
DGENRE=Blues
TTITLE0=Don`t Put All Your Dreams In One Basket
TTITLE1=Ain`t That Fine
TTITLE2=Georgia On My Mind
TTITLE3=Blues Is My Middle Name
TTITLE4=She`s On The Ball
TTITLE5=A Sentimental Blues
TTITLE6=This Love Of Mine
TTITLE7=Baby, Won`t You Please Come Home
TTITLE8=Kiss Me Baby
TTITLE9=Can`t See You Darling
TTITLE10=Sitting On Top Of The World
TTITLE11=What`d I Say
TTITLE12=C.C. Rider
TTITLE13=I´m Going Down To The River
EXTD=ID3G: 0
EXTT0=
EXTT1=
EXTT2=
EXTT3=
EXTT4=
EXTT5=
EXTT6=
EXTT7=
EXTT8=
EXTT9=
EXTT10=
EXTT11=
EXTT12=
EXTT13=
PLAYORDER=
